# xmcd
#
# Track frame offsets:
#	150
#	19970
#	35507
#	61407
#	86132
#	102237
#	117367
#	128547
#	143950
#	162347
#
# Disc length: 2374 seconds
#
# Revision: 0
# Processed by: cddbd v1.5.1PL0 Copyright (c) Steve Scherf et al.
# Submitted via: dBpowerAMP V4.0
#
DISCID=8709440a
DTITLE=Piero - La historia de un ídolo
DYEAR=1900
DGENRE=
TTITLE0=Piero - Juan Boliche
TTITLE1=Piero - Pedro Nadie
TTITLE2=Piero - Los Americanos
TTITLE3=Piero - Coplas de mi país
TTITLE4=Piero - Quiero ser de Vos
TTITLE5=Piero - Mi viejo
TTITLE6=Tengola piel cansada de la tarde
TTITLE7=Piero - Llegando llegaste
TTITLE8=Piero - Valdemar el brasilero
TTITLE9=Piero - cancion a Magdalena
EXTD=
EXTT0=
EXTT1=
EXTT2=
EXTT3=
EXTT4=
EXTT5=
EXTT6=
EXTT7=
EXTT8=
EXTT9=
PLAYORDER=
